<?xml version="1.0" encoding="utf-8"?>
<!-- Generator: Adobe Illustrator 16.0.0, SVG Export Plug-In . SVG Version: 6.00 Build 0)  -->
<!DOCTYPE svg PUBLIC "-//W3C//DTD SVG 1.1//EN" "http://www.w3.org/Graphics/SVG/1.1/DTD/svg11.dtd">
<svg version="1.1" id="Layer_1" xmlns="http://www.w3.org/2000/svg" xmlns:xlink="http://www.w3.org/1999/xlink" x="0px" y="0px"
	 width="48px" height="48px" viewBox="0 0 48 48" enable-background="new 0 0 48 48" xml:space="preserve">
<path fill="#FFFFFF" d="M42.9,10.201h-5.207c0.261-0.751,0.44-1.549,0.44-2.384c0-3.944-3.205-7.15-7.15-7.15
	c-2.49,0-4.683,1.275-5.959,3.206l-1.191,1.62l-1.191-1.62c-1.275-1.931-3.468-3.206-5.958-3.206c-3.944,0-7.15,3.206-7.15,7.15
	c0,0.834,0.167,1.633,0.441,2.384H4.767c-2.633,0-4.743,2.133-4.743,4.766L0,41.184c0,2.635,2.133,4.767,4.767,4.767H42.9
	c2.633,0,4.767-2.132,4.767-4.767V14.967C47.667,12.333,45.533,10.201,42.9,10.201z M30.983,5.434c1.311,0,2.384,1.072,2.384,2.383
	s-1.073,2.384-2.384,2.384S28.6,9.128,28.6,7.817S29.673,5.434,30.983,5.434z M16.684,5.434c1.311,0,2.383,1.072,2.383,2.383
	s-1.072,2.384-2.383,2.384S14.3,9.128,14.3,7.817S15.373,5.434,16.684,5.434z M42.9,41.184H4.767v-4.767H42.9V41.184z M42.9,29.267
	H4.767v-14.3h12.107l-4.957,6.757L15.79,24.5l5.66-7.709l2.383-3.242l2.383,3.242l5.66,7.709l3.873-2.776l-4.958-6.757H42.9V29.267z
	"/>
</svg>
