<?xml version="1.0" encoding="utf-8"?>
<!-- Generator: Adobe Illustrator 16.0.0, SVG Export Plug-In . SVG Version: 6.00 Build 0)  -->
<!DOCTYPE svg PUBLIC "-//W3C//DTD SVG 1.1//EN" "http://www.w3.org/Graphics/SVG/1.1/DTD/svg11.dtd">
<svg version="1.1" id="Layer_1" xmlns="http://www.w3.org/2000/svg" xmlns:xlink="http://www.w3.org/1999/xlink" x="0px" y="0px"
	 width="48px" height="48px" viewBox="0 0 48 48" enable-background="new 0 0 48 48" xml:space="preserve">
<path fill="#FFFFFF" stroke="#FFFFFF" stroke-miterlimit="10" d="M3.118,13.372c0.041,0,0.084,0.044,0.128,0.084
	c1.067,0.77,2.646,1.41,4.567,1.879c1.495,0.341,3.2,0.597,5.037,0.683h0.085l0,0h0.128h0.042h0.085h0.085l0,0h0.128h0.085l0,0
	h0.084l0,0l0,0h0.171l0,0h0.042h0.086l0,0l0,0h0.129l0,0h0.042h0.128h0.128h0.043l0,0h0.128l0,0l0,0h0.084h0.044l0,0h0.169l0,0l0,0
	h0.085l0,0h0.086h0.127l0,0h0.086h0.084h0.042h0.129l0,0h0.084c1.834-0.084,3.542-0.298,5.036-0.683
	c1.921-0.469,3.501-1.109,4.568-1.879c0.04-0.042,0.084-0.042,0.084-0.042c0.854-0.599,1.322-1.281,1.322-2.007
	c0-1.152-1.28-2.219-3.374-3.073c-2.305-0.938-5.507-1.536-9.092-1.536c-3.585,0-6.787,0.598-9.092,1.536
	c-2.091,0.854-3.372,1.964-3.372,3.073C1.794,12.091,2.264,12.731,3.118,13.372z M31.844,26.688V23.36
	c-0.385,0.085-0.769,0.256-1.066,0.47c-0.556,0.383-0.813,0.85-0.813,1.451c0,0.297,0.045,0.509,0.173,0.68
	c0.128,0.173,0.342,0.343,0.68,0.428c0.345,0.129,0.599,0.173,0.813,0.214C31.631,26.646,31.715,26.688,31.844,26.688z
	 M33.551,28.951v3.673c0.47-0.087,0.896-0.213,1.238-0.472c0.556-0.341,0.811-0.809,0.811-1.449s-0.255-1.067-0.726-1.368
	C34.575,29.209,34.105,29.079,33.551,28.951z M31.844,19.987c0-0.469,0.383-0.854,0.854-0.854c0.469,0,0.853,0.385,0.853,0.854
	v1.323c1.195,0.042,2.22,0.298,3.031,0.683c0.51,0.256,0.769,0.555,0.769,0.896c0,0.723-0.342,1.063-0.983,1.063
	c-0.17,0-0.597-0.127-1.367-0.341c-0.509-0.17-0.982-0.256-1.494-0.299v3.67c1.282,0.215,2.265,0.559,3.032,1.069
	c0.853,0.555,1.278,1.449,1.278,2.646c0,1.28-0.468,2.263-1.45,2.988c-0.771,0.557-1.708,0.895-2.815,1.024v1.323
	c0,0.466-0.385,0.852-0.854,0.852c-0.471,0-0.854-0.386-0.854-0.852v-1.323c-0.897-0.041-1.792-0.213-2.646-0.511
	c-1.067-0.343-1.622-0.77-1.622-1.195c0-0.813,0.341-1.195,0.98-1.195c0.173,0,0.685,0.127,1.622,0.424
	c0.599,0.172,1.108,0.297,1.666,0.386v-3.97c-0.256-0.043-0.512-0.084-0.726-0.131c-0.342-0.083-0.769-0.17-1.238-0.384
	c-0.469-0.173-0.854-0.385-1.107-0.6c-0.255-0.212-0.509-0.51-0.727-0.893c-0.215-0.387-0.295-0.813-0.295-1.325
	c0-1.152,0.513-2.133,1.537-2.9c0.77-0.554,1.619-0.938,2.56-1.068v-1.363H31.844z M39.998,20.672c-1.88-1.877-4.44-3.03-7.3-3.03
	c-2.861,0-5.464,1.152-7.298,3.03c-1.879,1.877-3.033,4.438-3.033,7.297c0,2.862,1.153,5.465,3.033,7.3
	c1.876,1.881,4.437,3.031,7.298,3.031c2.859,0,5.464-1.154,7.3-3.031c1.878-1.876,3.029-4.438,3.029-7.3
	C43.027,25.151,41.876,22.549,39.998,20.672z M32.698,15.934c3.328,0,6.36,1.367,8.538,3.542c2.175,2.178,3.543,5.208,3.543,8.536
	c0,3.332-1.368,6.362-3.543,8.536c-2.177,2.179-5.21,3.547-8.538,3.547c-3.329,0-6.36-1.366-8.539-3.547
	c-2.177-2.173-3.541-5.204-3.541-8.536c0-3.328,1.367-6.357,3.541-8.536C26.338,17.299,29.369,15.934,32.698,15.934z M19.209,21.098
	c0.725-1.408,1.664-2.689,2.773-3.799c0.3-0.298,0.599-0.556,0.897-0.811c-0.555,0.171-1.151,0.34-1.792,0.512l-0.214,0.042
	l-0.213,0.043c-1.58,0.342-3.33,0.556-5.165,0.641l0,0h-0.171l0,0h-0.128h-0.043h-0.085h-0.042h-0.043l0,0h-0.085h-0.129l0,0l0,0
	h-0.084l0,0l0,0h-0.085h-0.043h-0.041h-0.042h-0.043h-0.128h-0.128h-0.044h-0.042h-0.128l0,0H13.83h-0.084h-0.043h-0.128l0,0
	c-2.219-0.043-4.312-0.298-6.146-0.77c-1.836-0.427-3.415-1.067-4.654-1.792c-0.255,0.257-0.512,0.47-0.64,0.725
	c-0.213,0.298-0.298,0.641-0.298,0.938c0,0.683,0.47,1.368,1.323,2.007c0.043,0,0.085,0.043,0.129,0.084
	c1.067,0.77,2.646,1.41,4.567,1.879c1.494,0.342,3.202,0.598,5.037,0.683h0.084l0,0h0.129h0.042h0.084h0.086l0,0h0.128h0.085l0,0
	h0.085l0,0l0,0h0.169l0,0h0.044h0.084l0,0l0,0h0.129l0,0h0.042h0.129h0.042h0.042h0.042h0.043h0.042l0,0h0.044h0.042h0.043h0.043
	l0,0h0.042l0,0h0.044l0,0h0.042h0.043l0,0h0.043h0.042l0,0h0.043l0,0h0.042l0,0h0.042l0,0h0.043l0,0h0.043l0,0h0.042l0,0h0.042l0,0
	h0.043l0,0h0.042l0,0h0.042l0,0h0.042h0.043l0,0h0.042h0.043l0,0h0.042l0,0h0.043l0,0h0.042l0,0h0.042l0,0h0.042l0,0h0.043l0,0
	h0.042h0.042h0.042l0,0h0.042l0,0h0.042l0,0h0.043l0,0h0.042l0,0h0.043l0,0h0.042l0,0h0.042l0,0h0.042l0,0h0.042l0,0h0.042l0,0
	h0.042l0,0h0.042l0,0h0.043l0,0h0.042l0,0h0.042l0,0h0.042l0,0h0.042l0,0h0.042l0,0h0.042l0,0h0.042l0,0h0.043l0,0h0.042l0,0h0.042
	l0,0h0.042l0,0h0.043l0,0h0.042l0,0h0.043l0,0h0.042l0,0l0,0l0,0l0,0h0.042l0,0h0.042l0,0h0.043l0,0h0.043l0,0h0.042l0,0l0,0h0.042
	l0,0h0.043l0,0h0.043l0,0h0.042l0,0l0,0l0,0l0,0h0.043l0,0h0.043l0,0h0.042l0,0h0.044l0,0l0,0l0,0l0,0h0.042l0,0h0.043l0,0h0.042
	l0,0h0.042l0,0l0,0l0,0l0,0h0.044l0,0h0.042l0,0h0.044l0,0h0.042l0,0l0,0l0,0l0,0h0.042l0,0h0.044l0,0h0.043l0,0h0.042l0,0l0,0l0,0
	l0,0h0.042l0,0h0.042l0,0h0.042l0,0h0.042l0,0l0,0l0,0l0,0h0.042l0,0h0.042l0,0h0.042l0,0h0.042l0,0l0,0l0,0l0,0h0.043l0,0h0.042
	l0,0h0.043l0,0h0.042l0,0h0.085l0,0h0.042l0,0h0.042l0,0h0.042l0,0L19.209,21.098L19.209,21.098L19.209,21.098z M17.587,26.817
	c0.085-1.324,0.383-2.647,0.81-3.843l0,0l0,0l0,0l0,0l0,0l0,0l0,0l0,0l0,0l0,0l0,0l0,0l0,0l0,0l0,0l0,0l0,0l0,0l0,0l0,0l0,0l0,0l0,0
	l0,0l0,0l0,0l0,0l0,0l0,0l0,0l0,0l0,0l0,0l0,0l0,0l0,0l0,0l0,0l0,0l0,0l0,0l0,0l0,0l0,0l0,0l0,0l0,0l0,0l0,0l0,0l0,0l0,0l0,0l0,0
	l0,0l0,0l0,0l0,0l0,0l0,0l0,0l0,0l0,0l0,0l0,0l0,0l0,0l0,0l0,0l0,0l0,0l0,0l0,0l0,0l0,0l0,0l0,0l0,0l0,0l0,0l0,0l0,0l0,0l0,0l0,0
	l0,0l0,0l0,0l0,0l0,0l0,0l0,0l0,0l0,0l0,0l0,0l0,0l0,0l0,0l0,0l0,0l0,0l0,0l0,0l0,0l0,0l0,0l0,0l0,0l0,0l0,0l0,0l0,0l0,0l0,0l0,0
	l0,0l0,0l0,0l0,0l0,0l0,0l0,0l0,0l0,0l0,0l0,0h-0.042l0,0h-0.043l0,0h-0.042l0,0h-0.042l0,0h-0.044l0,0h-0.042l0,0h-0.043l0,0
	h-0.041l0,0h-0.043l0,0h-0.044l0,0h-0.042l0,0h-0.044l0,0h-0.042l0,0H17.8l0,0h-0.044l0,0h-0.04l0,0h-0.042l0,0h-0.043l0,0h-0.043
	h-0.043l0,0h-0.042l0,0h-0.042l0,0h-0.044h-0.042l0,0h-0.042l0,0h-0.042l0,0h-0.042l0,0h-0.042l0,0h-0.042l0,0h-0.043l0,0h-0.043
	l0,0h-0.042l0,0H16.99h-0.042l0,0h-0.042l0,0h-0.044h-0.043l0,0l-1.409,0.259h-0.042l0,0h-0.042l0,0h-0.042l0,0H15.24l0,0h-0.042
	h-0.042l0,0h-0.044l0,0h-0.042l0,0h-0.043h-0.043l0,0H14.94l0,0h-0.043l0,0h-0.042h-0.043h-0.043l0,0h-0.043l0,0h-0.042l0,0H14.64
	h-0.084h-0.041h-0.042l0,0h-0.043h-0.042h-0.044H14.3h-0.042h-0.129h-0.042h-0.042h-0.129l0,0h-0.128h-0.085H13.66h-0.128l0,0
	c-2.219-0.046-4.312-0.302-6.147-0.77c-1.835-0.427-3.414-1.067-4.652-1.793c-0.256,0.255-0.512,0.468-0.64,0.725
	c-0.214,0.298-0.3,0.64-0.3,0.937c0,0.685,0.47,1.368,1.324,1.963l0,0l0,0l0,0l0,0l0,0l0,0c0.042,0,0.085,0.045,0.085,0.045
	c0.128,0.083,0.255,0.169,0.383,0.252l0.043,0.043l0,0c0.085,0.042,0.171,0.086,0.214,0.13l0.042,0.043l0,0
	c0.043,0.04,0.129,0.082,0.171,0.082l0.042,0.044l0,0l0.042,0.045l0.042,0.041l0,0l0.042,0.043l0,0l0.043,0.042l0,0l0.042,0.04l0,0
	l0.043,0.041l0,0l0.042,0.042l0,0c0.043,0.044,0.127,0.044,0.214,0.085l0,0L4.65,25.36l0,0l0.042,0.041l0,0
	c0.087,0.041,0.128,0.041,0.214,0.085l0,0l0.042,0.046l0,0l0.085,0.04l0.086,0.041l0,0l0.085,0.043l0,0l0.084,0.042l0,0l0.085,0.043
	l0,0l0.085,0.042l0,0l0.085,0.042l0,0l0.085,0.042l0,0l0.084,0.042l0,0l0.298-0.13l0,0l0.084,0.045l0,0l0.085,0.041l0,0l0.086,0.042
	l0,0l0.085,0.043l0,0l0.085,0.041l0,0l0.084,0.042l0,0l0.084,0.044l0,0l0.084,0.039l0,0l0.085,0.045l0,0l0.086,0.041l0,0
	l0.084,0.043l0,0l0.084,0.04l0,0l0.085,0.043l0,0l0.084,0.043l0,0l0.085,0.04l0,0l0.085,0.046l0,0l0.085,0.04l0,0l0.084,0.041l0,0
	l0.085,0.044l0,0l0.084,0.041l0,0l0.087,0.045h0.084l0,0h0.042h0.043h0.043h0.042l0,0h0.084l0,0h0.085l0,0h0.044H8.31h0.042h0.044
	l0,0H8.48l0,0h0.085h0.044h0.042h0.042h0.042l0,0h0.086l0,0h0.084h0.043h0.042h0.042h0.042H9.12l0,0h0.085l0,0H9.29h0.042h0.042
	h0.043h0.042h0.085l0,0h0.084l0,0h0.085h0.043h0.042h0.042h0.042h0.085l0,0h0.084l0,0h0.085h0.042h0.066h0.043h0.042h0.085h0.085
	l0,0h0.085h0.042h0.043h0.042h0.044h0.084l0,0h0.085l0,0h0.086h0.043h0.042h0.041h0.045h0.085l0,0h0.083l0,0h0.085h0.043h0.043
	h0.042h0.045h0.084l0,0h0.084l0,0h0.086h0.042h0.042h0.042h0.042h0.085l0,0h0.084l0,0h0.085h0.043h0.042h0.043h0.044h0.084l0,0
	h0.085l0,0h0.085h0.042h0.042h0.042h0.043h0.085h0.128h0.128h0.127h0.129h0.129h0.127h0.129l0,0h0.171l0,0h0.042h0.128l0,0h0.127
	l0,0l0,0h0.043h0.128h0.043h0.043h0.043l0,0h0.044l0,0h0.042l0,0h0.043l0,0h0.043l0,0h0.043l0,0h0.042l0,0h0.042h0.043l0,0h0.043
	h0.042l0,0h0.042h0.042l0,0h0.042h0.042l0,0h0.043l0,0h0.042l0,0h0.044l0,0h0.042l0,0h0.042l0,0h0.042l0,0h0.042h0.042l0,0h0.042
	l0,0h0.043l0,0h0.042l0,0h0.042l0,0h0.042l0,0h0.042l0,0h0.042l0,0h0.042l0,0h0.042l0,0h0.043l0,0h0.042h0.042l0,0h0.043l0,0h0.042
	l0,0h0.17l0,0h0.043l0,0h0.042l0,0h0.042l0,0h0.042h0.042l0,0h0.042l0,0h0.042h0.042l0,0h0.043l0,0h0.042l0,0h0.042l0,0h0.042l0,0
	h0.086l0,0h0.043l0,0h0.042l0,0h0.042l0,0h0.042l0,0h0.043l0,0l0,0l0,0l0,0l0,0l0,0l0,0l0,0l0,0h0.043l0,0l0,0l0,0l0,0l0,0l0,0l0,0
	l0,0l0,0l0,0l0,0l0,0l0,0l0,0l0,0l0,0l0,0l0,0l0,0h0.042l0,0l0,0l0,0l0,0l0,0l0,0l0,0l0,0l0,0l0,0l0,0l0,0h0.042l0,0l0,0
	C17.075,26.859,17.331,26.859,17.587,26.817z M18.142,32.24c-0.298-1.027-0.47-2.05-0.555-3.161v-0.041v-0.043v-0.044V28.91l0,0
	v-0.043v-0.044v-0.041v-0.086v-0.044v-0.041v-0.043v-0.042l0,0v-0.043l0,0l0,0l0,0l0,0l0,0l0,0l0,0l0,0l0,0l0,0l0,0l0,0h-0.043l0,0
	l0,0l0,0l0,0l0,0l0,0l0,0l0,0l0,0l0,0l0,0l0,0l0,0l0,0l0,0l0,0l0,0l0,0l0,0l0,0l0,0l0,0l0,0l0,0l0,0l0,0l0,0l0,0l0,0l0,0l0,0l0,0
	l0,0l0,0l0,0l0,0l0,0l0,0l0,0l0,0l0,0l0,0l0,0l0,0l0,0l0,0l0,0l0,0l0,0l0,0l0,0l0,0l0,0l0,0l0,0l0,0l0,0l0,0l0,0l0,0l0,0l0,0l0,0
	l0,0l0,0h-0.042l0,0l0,0l0,0l0,0l0,0l0,0l0,0l0,0l0,0l0,0l0,0l0,0l0,0l0,0l0,0l0,0l0,0l0,0l0,0l0,0l0,0h-0.042h-0.044h-0.042h-0.042
	h-0.085h-0.042h-0.085l0,0h-0.043h-0.042H16.99l0,0h-0.042h-0.042h-0.044l0,0h-0.043h-0.042h-0.084h-0.128h-0.043h-0.042h-0.043
	h-0.044h-0.084h-0.042h-0.042H16.18l0,0h-0.043h-0.042h-0.042H16.01h-0.129h-0.084h-0.042h-0.042h-0.043l0,0h-0.042h-0.043h-0.042
	l0,0H15.5h-0.046h-0.042h-0.043h-0.043h-0.042H15.24h-0.042h-0.042h-0.044h-0.042h-0.043l0,0h-0.043h-0.128h-0.043h-0.043H14.64l0,0
	h-0.125h-0.085h-0.042h-0.129l0,0h-0.085l0,0h-0.085l0,0h-0.084h-0.042h-0.085h-0.042h-0.085h-0.042h-0.042h-0.042h-0.044h-0.085
	h-0.044h-0.087h-0.042h-0.084l0,0h-0.085l0,0h-0.085l0,0h-0.085l0,0h-0.084h-0.042h-0.085h-0.042h-0.043h-0.044h-0.042h-0.042
	h-0.042h-0.085h-0.046h-0.084l0,0H12.21l0,0h-0.088l0,0h-0.084l0,0h-0.084l0,0l0,0h-0.085h-0.086H11.74h-0.042h-0.042h-0.042h-0.043
	h-0.043h-0.084h-0.129l0,0h-0.085l0,0h-0.085l0,0h-0.085l0,0h-0.084h-0.044h-0.084h-0.042l0,0h-0.085l0,0h-0.042h-0.043h-0.042
	h-0.085h-0.085l0,0h-0.084l0,0h-0.089l0,0h-0.085l0,0h-0.084l0,0H9.991H9.95H9.906H9.865l0,0H9.78H9.737H9.695H9.652H9.567H9.525
	H9.44l0,0H9.355l0,0H9.271l0,0H9.178l0,0H9.093H9.05H8.966H8.923H8.881H8.837H8.795H8.752l0,0H8.667H8.624H8.539l0,0H8.454l0,0
	H8.369c-1.835-0.425-3.415-1.063-4.652-1.795c-0.255,0.258-0.511,0.469-0.639,0.728c-0.214,0.299-0.298,0.639-0.298,0.939
	c0,1.15,1.28,2.218,3.371,3.073c2.304,0.936,5.505,1.533,9.091,1.533c0.854,0,1.708-0.039,2.518-0.082
	C17.246,32.364,17.716,32.325,18.142,32.24z M27.875,15.464c0,0-0.045,0-0.045,0.042c-1.748,0.683-3.326,1.708-4.607,3.03
	c-0.812,0.81-1.494,1.708-2.051,2.688l0,0l-0.084,0.128l0,0l-0.128,0.129l0,0l-0.085,0.129v0.043l-0.043,0.084l0,0l0,0v0.042
	l-0.042,0.084l0,0l0,0v0.043l-0.042,0.085v0.042l0,0v0.042v0.043v0.044l0,0v0.042v0.044l0,0l0,0
	c-0.812,1.748-1.281,3.671-1.281,5.718l0,0l0,0v0.173v0.043l0,0v0.171l0,0l0,0c0,0.126,0,0.213,0,0.341l0,0
	c0.172,3.416,1.624,6.53,3.929,8.793c2.433,2.433,5.761,3.925,9.473,3.925c3.715,0,7.046-1.492,9.476-3.925
	c2.437-2.434,3.931-5.762,3.931-9.478c0-3.714-1.494-7.042-3.931-9.475c-2.43-2.432-5.761-3.925-9.476-3.925
	C30.99,14.611,29.369,14.909,27.875,15.464z M28.385,11.366v2.09c1.366-0.382,2.775-0.596,4.269-0.596
	c4.186,0,7.98,1.708,10.712,4.439c2.733,2.731,4.439,6.531,4.439,10.712c0,4.186-1.706,7.983-4.439,10.715
	c-2.731,2.73-6.526,4.438-10.712,4.438c-4.183,0-7.98-1.707-10.713-4.438c-1.366-1.366-2.476-2.986-3.245-4.824
	c-0.598,0.086-1.237,0.173-1.877,0.212c-0.854,0.088-1.75,0.088-2.646,0.088c-3.799,0-7.214-0.641-9.732-1.665
	C1.708,31.429,0,29.764,0,27.843v-5.464v-5.507v-5.506c0-1.878,1.708-3.542,4.44-4.694c2.517-1.024,5.933-1.665,9.732-1.665
	c3.798,0,7.212,0.641,9.731,1.665C26.721,7.823,28.385,9.488,28.385,11.366z"/>
</svg>
