<?xml version="1.0" encoding="utf-8"?>
<!-- Generator: Adobe Illustrator 16.0.0, SVG Export Plug-In . SVG Version: 6.00 Build 0)  -->
<!DOCTYPE svg PUBLIC "-//W3C//DTD SVG 1.1//EN" "http://www.w3.org/Graphics/SVG/1.1/DTD/svg11.dtd">
<svg version="1.1" id="Layer_1" xmlns="http://www.w3.org/2000/svg" xmlns:xlink="http://www.w3.org/1999/xlink" x="0px" y="0px"
	 width="48px" height="48px" viewBox="0 0 48 48" enable-background="new 0 0 48 48" xml:space="preserve">
<g id="Layer_1_1_">
	<rect x="7.897" y="13.04" fill="#FFFFFF" stroke="#FFFFFF" stroke-miterlimit="10" width="21.721" height="1.975"/>
	<rect x="7.897" y="18.962" fill="#FFFFFF" stroke="#FFFFFF" stroke-miterlimit="10" width="21.721" height="1.975"/>
	<rect x="7.897" y="24.887" fill="#FFFFFF" stroke="#FFFFFF" stroke-miterlimit="10" width="16.785" height="1.976"/>
	<rect x="7.897" y="30.813" fill="#FFFFFF" stroke="#FFFFFF" stroke-miterlimit="10" width="11.847" height="1.972"/>
	<rect x="7.897" y="36.734" fill="#FFFFFF" stroke="#FFFFFF" stroke-miterlimit="10" width="11.847" height="1.974"/>
	<path fill="#FFFFFF" stroke="#FFFFFF" stroke-miterlimit="10" d="M37.516,17.568V7.694l-7.49-7.49H-0.001v47.39h37.517V30.23
		l10.28-10.28l-6.331-6.332L37.516,17.568z M36.528,21.346l3.54,3.541L28.222,36.734h-3.539v-3.54L36.528,21.346z M30.604,3.575
		l3.541,3.539h-3.541V3.575z M35.541,45.62H1.974V2.18h26.654v6.911h6.91v10.452L22.705,32.376v6.332h6.333l6.501-6.501
		L35.541,45.62L35.541,45.62z M41.465,23.493l-3.541-3.542l3.541-3.539l3.54,3.539L41.465,23.493z"/>
</g>
</svg>
